<svg version="1.0" xmlns="http://www.w3.org/2000/svg"
 width="803.000000pt" height="1007.000000pt" viewBox="0 0 803.000000 1007.000000"
 preserveAspectRatio="xMidYMid meet">

<g transform="translate(0.000000,1007.000000) scale(0.100000,-0.100000)"
fill="#000000" stroke="none">
<path d="M3759 10066 c-3 -3 -37 -8 -75 -10 -38 -3 -87 -8 -109 -11 -122 -16
-201 -28 -295 -45 -58 -11 -123 -22 -145 -26 -61 -9 -247 -59 -368 -98 -244
-80 -537 -211 -762 -341 -99 -57 -354 -225 -378 -249 -6 -7 -68 -58 -137 -113
-459 -370 -812 -808 -1073 -1329 -161 -322 -306 -759 -353 -1064 -8 -58 -20
-127 -25 -155 -10 -55 -15 -97 -29 -260 -6 -67 -10 -1319 -10 -3237 l0 -3128
4005 0 4005 0 0 3243 c0 3217 0 3243 -21 3382 -113 774 -427 1465 -934 2052
-120 140 -361 375 -500 488 -519 423 -1115 703 -1775 835 -233 46 -393 61
-710 67 -168 3 -308 3 -311 -1z"/>
</g>
</svg>
